<svg id="Layer_1" data-name="Layer 1" xmlns="http://www.w3.org/2000/svg" xmlns:xlink="http://www.w3.org/1999/xlink" viewBox="0 100 500 200">
    <defs>
        <style>
            .cls-1 {
                fill: #fff;
            }

            .cls-2 {
                fill: none;
                stroke: #f1ba3a;
                stroke-width: 3px;
            }

            .cls-2, .cls-3, .cls-4, .cls-5 {
                stroke-miterlimit: 10;
            }

            .cls-3, .cls-5 {
                fill: none;
            }

            .cls-3 {
                stroke-width: 2px;
                stroke: url(#linear-gradient);
            }

            .cls-4 {
                fill: #2a3e59;
                stroke: url(#linear-gradient-2);
            }

            .cls-5 {
                stroke-linecap: round;
                stroke-width: 4px;
                stroke: url(#linear-gradient-3);
            }

            .cls-6 {
                font-size: 50px;
                fill: #54738d;
                font-family: CenturyGothic, Century Gothic;
            }
        </style>
        <linearGradient id="linear-gradient" x1="242.66" y1="154.69" x2="363.35" y2="154.69" gradientUnits="userSpaceOnUse"><stop offset="0" stop-color="#54738d" stop-opacity="0.5" /><stop offset="1" stop-color="#2a3e59" /></linearGradient>
        <linearGradient id="linear-gradient-2" x1="385.31" y1="170.56" x2="393.99" y2="170.56" gradientUnits="userSpaceOnUse"><stop offset="0.01" stop-color="#54738d" stop-opacity="0.5" /><stop offset="1" stop-color="#2a3e59" /></linearGradient>
        <linearGradient id="linear-gradient-3" x1="311.79" y1="203.31" x2="381.31" y2="203.31" xlink:href="#linear-gradient-2" />
    </defs>
    <!--<rect class="cls-1" x="-0.47" y="-0.07" width="500" height="500" />-->
    <!--<circle class="cls-2" cx="250" cy="250" r="239" />-->
    <path class="cls-3" d="M356.69,173c2.64-4.94,6.79-14.51,5.37-26.06-2.84-23.09-26.76-44.83-46.36-40.19-9.57,2.26-17,10.54-20.09,18.9-10.31,27.58,27.05,69.95,37.8,62.27s7.3-31.81-20.86-53.83-56.69-11.5-66.09,8.27c-7.77,16.37,1.93,36.56,12.94,47.15,16.88,16.26,45.82,18.57,71.62,4.78" />
    <circle class="cls-4" cx="389.65" cy="170.56" r="3.84" />
    <path class="cls-5" d="M379.31,174.4a99.66,99.66,0,0,0-9.81,3.71c-29.21,12.83-46.36,37-55.71,54.12" />
    <text class="cls-6" transform="translate(27.31 288.25)">Philamé Créations</text>
</svg>